<svg width="11" height="9" viewBox="0 0 11 9" fill="none" xmlns="http://www.w3.org/2000/svg">
<path d="M4.66467 8.36287L4.66457 8.36297C4.5786 8.44944 4.46117 8.49781 4.33906 8.49781C4.21694 8.49781 4.09951 8.44944 4.01354 8.36297L4.01344 8.36287L1.13059 5.47955L1.13059 5.47955C0.850919 5.19988 0.850966 4.74643 1.13055 4.46737L1.13059 4.46733L1.49156 4.10627C1.49156 4.10627 1.49156 4.10626 1.49157 4.10626C1.77132 3.82661 2.22423 3.82662 2.50387 4.10627L4.3037 5.90619L4.33905 5.94154L4.37441 5.90619L9.2378 1.0427C9.51757 0.763026 9.97093 0.763074 10.2501 1.04267L10.2501 1.04269L10.6111 1.40376L10.6464 1.36841L10.6111 1.40377C10.8908 1.68343 10.8907 2.13679 10.6111 2.41595L10.6111 2.41598L4.66467 8.36287Z" fill="white" stroke="#F1B313" stroke-width="0.1"/>
</svg>
