<svg width="37" height="36" viewBox="0 0 37 36" fill="none" xmlns="http://www.w3.org/2000/svg">
<g clip-path="url(#clip0_1223_1307)">
<path d="M32.5 5H4.5C3.43913 5 2.42172 5.42143 1.67157 6.17157C0.921427 6.92172 0.5 7.93913 0.5 9L0.5 18H36.5V9C36.5 7.93913 36.0786 6.92172 35.3284 6.17157C34.5783 5.42143 33.5609 5 32.5 5Z" fill="#005BBB"/>
<path d="M36.5 27C36.5 28.0609 36.0786 29.0783 35.3284 29.8284C34.5783 30.5786 33.5609 31 32.5 31H4.5C3.43913 31 2.42172 30.5786 1.67157 29.8284C0.921427 29.0783 0.5 28.0609 0.5 27V18H36.5V27Z" fill="#FFD500"/>
</g>
<defs>
<clipPath id="clip0_1223_1307">
<rect width="36" height="36" fill="white" transform="translate(0.5)"/>
</clipPath>
</defs>
</svg>
