<svg width="128" height="32" viewBox="0 0 128 32" fill="none" xmlns="http://www.w3.org/2000/svg">
<path d="M43.9452 24.9803L38.8025 9.98384H41.0907L44.7381 20.7313L45.0326 23.4125H45.4857L46.2333 24.7985C45.886 24.8591 45.5084 24.9045 45.1006 24.9348C44.7079 24.9803 44.3228 24.9954 43.9452 24.9803ZM40.5696 11.4153L37.4432 11.0518L37.4659 9.98384H40.6376L40.5696 11.4153ZM46.2333 24.7985L44.942 24.0032L49.7901 9.98384H51.5799L46.2333 24.7985ZM41.4078 11.5062L40.9321 9.98384H43.5147L43.6507 10.7109C43.3184 10.8624 42.9559 11.0063 42.5632 11.1427C42.1706 11.2638 41.7854 11.385 41.4078 11.5062ZM50.4018 11.4153L47.2754 11.0518L47.2981 9.98384H50.4698L50.4018 11.4153ZM50.6057 11.5062L50.13 9.98384H52.7126L52.8485 10.7109C52.5163 10.8624 52.1538 11.0063 51.7611 11.1427C51.3684 11.2638 50.9833 11.385 50.6057 11.5062Z" fill="#2F2F2F"/>
<path d="M55.1611 25.2075C54.557 25.2075 53.9226 25.109 53.2581 24.9121C52.5936 24.7303 51.8913 24.435 51.1512 24.026L51.9894 22.0264C52.5634 22.4051 53.243 22.7687 54.0284 23.1171C54.8137 23.4503 55.6293 23.6776 56.4751 23.7987C56.6714 23.6321 56.8225 23.4428 56.9282 23.2307C57.0339 23.0035 57.0868 22.7535 57.0868 22.4809C57.0868 22.0416 56.9508 21.678 56.679 21.3902C56.4071 21.1024 56.0598 20.8525 55.6369 20.6404C55.214 20.4283 54.7609 20.2238 54.2776 20.0269C53.7943 19.83 53.3412 19.6028 52.9183 19.3453C52.4954 19.0877 52.148 18.7696 51.8762 18.3909C51.6043 17.9971 51.4684 17.5048 51.4684 16.914C51.4684 16.2021 51.6723 15.6037 52.08 15.119C52.4878 14.6342 53.0165 14.2707 53.6659 14.0283C54.3304 13.786 55.0327 13.6648 55.7728 13.6648C56.3014 13.6648 56.8074 13.7254 57.2907 13.8466C57.7891 13.9677 58.2497 14.1344 58.6726 14.3464L57.9703 16.1642C57.4568 15.7249 56.83 15.4144 56.09 15.2326C55.365 15.0508 54.7005 14.9902 54.0963 15.0508C53.8094 15.2326 53.613 15.4447 53.5073 15.687C53.4167 15.9143 53.3714 16.1339 53.3714 16.346C53.3714 16.755 53.5073 17.0958 53.7792 17.3685C54.051 17.626 54.3984 17.8608 54.8213 18.0728C55.2593 18.2698 55.7199 18.4742 56.2032 18.6863C56.7016 18.8832 57.1623 19.118 57.5852 19.3907C58.0232 19.6482 58.3781 19.9815 58.65 20.3905C58.9218 20.7995 59.0577 21.3069 59.0577 21.9128C59.0577 22.8823 58.6953 23.6776 57.9703 24.2986C57.2454 24.9045 56.309 25.2075 55.1611 25.2075ZM57.0641 17.2776L56.8149 14.4828L58.6726 14.3464C58.7028 14.8312 58.6877 15.3235 58.6273 15.8234C58.5669 16.3232 58.4536 16.808 58.2875 17.2776H57.0641Z" fill="#2F2F2F"/>
<path d="M66.0795 25.0939C65.1582 25.0939 64.3502 24.9424 63.6554 24.6395C62.9607 24.3365 62.3792 23.9275 61.911 23.4125C61.4428 22.8974 61.0954 22.3143 60.8689 21.6629C60.6423 21.0115 60.5291 20.3299 60.5291 19.6179C60.5291 18.8605 60.6499 18.1258 60.8916 17.4139C61.1483 16.7019 61.5032 16.0657 61.9563 15.5053C62.4094 14.9448 62.9531 14.4979 63.5875 14.1647C64.2369 13.8314 64.9468 13.6648 65.717 13.6648C66.3061 13.6648 66.8498 13.7632 67.3482 13.9602C67.8466 14.1571 68.277 14.4373 68.6395 14.8009C69.0171 15.1493 69.3041 15.5658 69.5004 16.0506C69.6967 16.5353 69.7874 17.0655 69.7723 17.6411L67.8466 18.4364C67.9221 17.7699 67.8239 17.1715 67.5521 16.6413C67.2802 16.1112 66.88 15.7022 66.3514 15.4144C65.8379 15.1266 65.2488 15.0054 64.5843 15.0508C64.1161 15.2932 63.7385 15.6416 63.4516 16.096C63.1797 16.5505 62.9758 17.0428 62.8399 17.5729C62.719 18.1031 62.6586 18.6257 62.6586 19.1408C62.6586 20.0345 62.8248 20.7995 63.157 21.4357C63.4893 22.0567 63.9349 22.5339 64.4937 22.8672C65.0525 23.2004 65.6793 23.367 66.374 23.367C66.8271 23.367 67.2953 23.2989 67.7786 23.1625C68.2619 23.0262 68.7603 22.8444 69.2739 22.6172L69.6137 23.5943L66.0795 25.0939ZM68.4809 18.9135L62.4774 18.7999V17.6184L69.5231 17.3003L69.7723 17.6411L68.4809 18.9135Z" fill="#2F2F2F"/>
<path d="M71.6565 19.0953L70.9769 17.9592L71.1808 17.5048H76.9351L77.6147 18.6409L77.4108 19.0953H71.6565Z" fill="#2F2F2F"/>
<path d="M83.6531 25.1848C83.049 25.1848 82.4222 25.1015 81.7728 24.9348C81.1385 24.7682 80.4739 24.5259 79.7792 24.2077L81.1838 22.1855C81.3046 22.3976 81.5462 22.6399 81.9087 22.9126C82.2863 23.1853 82.7772 23.4049 83.3813 23.5715C83.9854 23.723 84.6726 23.7382 85.4429 23.617C86.0621 23.2383 86.5379 22.6702 86.8701 21.9128C87.2024 21.1403 87.3685 20.345 87.3685 19.527C87.3685 18.8454 87.2477 18.2092 87.0061 17.6184C86.7795 17.0125 86.4548 16.5277 86.0319 16.1642C85.6241 15.7855 85.1408 15.5961 84.582 15.5961C84.0383 15.5961 83.4719 15.7552 82.8829 16.0733C82.309 16.3914 81.735 16.755 81.1611 17.164L80.9572 16.0506L84.4687 13.8238C85.2239 13.6572 85.9035 13.6875 86.5077 13.9147C87.1269 14.1419 87.6555 14.5131 88.0935 15.0281C88.5466 15.528 88.894 16.1263 89.1356 16.8231C89.3773 17.5199 89.4981 18.2698 89.4981 19.0726C89.4981 19.9512 89.3546 20.7616 89.0677 21.5038C88.7807 22.2461 88.3729 22.8974 87.8443 23.4579C87.3308 24.0032 86.7191 24.4274 86.0093 24.7303C85.2994 25.0333 84.514 25.1848 83.6531 25.1848ZM79.7792 24.2077V8.89318L80.9119 8.05247L81.7954 8.87046V23.6851L79.7792 24.2077ZM78.1027 9.82478L77.8308 8.75685C78.2839 8.54478 78.7899 8.37815 79.3487 8.25697C79.9226 8.13579 80.4437 8.06762 80.9119 8.05247L81.2064 8.62052L80.2096 9.66573L78.1027 9.82478Z" fill="#2F2F2F"/>
<path d="M94.4036 25.0939C94.1166 25.0182 93.8448 24.9045 93.588 24.7531C93.3313 24.5864 93.0972 24.4047 92.8857 24.2077C92.6894 23.9957 92.5308 23.7987 92.41 23.617C92.3193 23.4655 92.2438 23.2837 92.1834 23.0716C92.123 22.8596 92.0777 22.5869 92.0475 22.2537C92.0324 21.9204 92.0248 21.4963 92.0248 20.9812V14.5964L93.1349 13.7557L94.0411 14.5509V21.1176C94.0411 21.9053 94.1619 22.4733 94.4036 22.8217C94.6452 23.1701 95.0228 23.3443 95.5363 23.3443C96.08 23.3443 96.6691 23.2004 97.3034 22.9126C97.9528 22.6096 98.5645 22.2688 99.1385 21.8901L99.5462 22.8672C98.9874 23.3064 98.3757 23.6927 97.7112 24.026C97.0467 24.3592 96.4123 24.6167 95.8082 24.7985C95.2192 24.9954 94.751 25.0939 94.4036 25.0939ZM90.3257 15.528L90.0539 14.46C90.507 14.248 91.0129 14.0814 91.5717 13.9602C92.1457 13.839 92.6667 13.7708 93.1349 13.7557L93.4294 14.3237L92.4326 15.3689L90.3257 15.528ZM100.407 25.0939C100.241 25.0787 100.037 24.9727 99.7954 24.7758C99.5538 24.594 99.3272 24.3592 99.1158 24.0714C98.9195 23.7836 98.7835 23.4958 98.708 23.208V22.8899V14.5964L99.8181 13.7557L100.724 14.5509V22.799C100.724 22.9656 100.777 23.0868 100.883 23.1625C101.004 23.2231 101.147 23.2534 101.313 23.2534C101.479 23.2534 101.653 23.2307 101.834 23.1853C102.031 23.1398 102.204 23.0944 102.355 23.0489L102.695 24.0487L100.407 25.0939ZM97.0089 15.528L96.737 14.46C97.1901 14.248 97.6961 14.0814 98.2549 13.9602C98.8288 13.839 99.3499 13.7708 99.8181 13.7557L100.113 14.3237L99.1158 15.3689L97.0089 15.528Z" fill="#2F2F2F"/>
<path d="M108.571 25.0939C107.559 25.109 106.66 24.8667 105.875 24.3668C105.09 23.8518 104.478 23.1625 104.04 22.2991C103.602 21.4357 103.383 20.4889 103.383 19.4589C103.383 18.5803 103.534 17.785 103.836 17.0731C104.153 16.346 104.576 15.7249 105.105 15.2099C105.649 14.6948 106.26 14.301 106.94 14.0283C107.635 13.7557 108.352 13.6193 109.092 13.6193C109.968 13.6193 110.723 13.786 111.358 14.1192C112.007 14.4525 112.453 14.8387 112.694 15.278L111.72 16.9367C111.478 16.5429 111.116 16.1945 110.633 15.8915C110.164 15.5734 109.621 15.3462 109.001 15.2099C108.397 15.0584 107.771 15.0584 107.121 15.2099C106.608 15.6795 106.207 16.2702 105.92 16.9822C105.649 17.6941 105.513 18.4364 105.513 19.2089C105.513 19.9663 105.633 20.648 105.875 21.2539C106.132 21.8598 106.494 22.3445 106.963 22.7081C107.431 23.0565 107.974 23.2307 108.594 23.2307C109.077 23.2307 109.613 23.1019 110.202 22.8444C110.806 22.5869 111.456 22.1779 112.15 21.6174L112.083 22.7308L108.571 25.0939ZM112.672 25.0939C112.505 25.0787 112.302 24.9727 112.06 24.7758C111.818 24.594 111.592 24.3592 111.38 24.0714C111.184 23.7836 111.048 23.4958 110.972 23.208V22.8899V8.89318L112.083 8.05247L112.989 8.87046V22.799C112.989 22.9656 113.042 23.0868 113.147 23.1625C113.268 23.2231 113.412 23.2534 113.578 23.2534C113.744 23.2534 113.918 23.2307 114.099 23.1853C114.295 23.1398 114.469 23.0944 114.62 23.0489L114.96 24.0487L112.672 25.0939ZM109.273 9.82478L109.001 8.75685C109.455 8.54478 109.961 8.37815 110.519 8.25697C111.093 8.13579 111.614 8.06762 112.083 8.05247L112.377 8.62052L111.38 9.66573L109.273 9.82478Z" fill="#2F2F2F"/>
<path d="M120.858 25.0939C119.937 25.0939 119.129 24.9424 118.434 24.6395C117.739 24.3365 117.158 23.9275 116.69 23.4125C116.222 22.8974 115.874 22.3143 115.648 21.6629C115.421 21.0115 115.308 20.3299 115.308 19.6179C115.308 18.8605 115.429 18.1258 115.67 17.4139C115.927 16.7019 116.282 16.0657 116.735 15.5053C117.188 14.9448 117.732 14.4979 118.366 14.1647C119.016 13.8314 119.726 13.6648 120.496 13.6648C121.085 13.6648 121.629 13.7632 122.127 13.9602C122.625 14.1571 123.056 14.4373 123.418 14.8009C123.796 15.1493 124.083 15.5658 124.279 16.0506C124.476 16.5353 124.566 17.0655 124.551 17.6411L122.625 18.4364C122.701 17.7699 122.603 17.1715 122.331 16.6413C122.059 16.1112 121.659 15.7022 121.13 15.4144C120.617 15.1266 120.028 15.0054 119.363 15.0508C118.895 15.2932 118.517 15.6416 118.23 16.096C117.958 16.5505 117.755 17.0428 117.619 17.5729C117.498 18.1031 117.437 18.6257 117.437 19.1408C117.437 20.0345 117.604 20.7995 117.936 21.4357C118.268 22.0567 118.714 22.5339 119.272 22.8672C119.831 23.2004 120.458 23.367 121.153 23.367C121.606 23.367 122.074 23.2989 122.557 23.1625C123.041 23.0262 123.539 22.8444 124.053 22.6172L124.392 23.5943L120.858 25.0939ZM123.26 18.9135L117.256 18.7999V17.6184L124.302 17.3003L124.551 17.6411L123.26 18.9135Z" fill="#2F2F2F"/>
<path fill-rule="evenodd" clip-rule="evenodd" d="M26.0134 12.2125C23.3621 12.377 19.9988 13.7737 17.0623 15.9491C10.978 20.4563 6.05942 20.9643 4.48864 20.8626C3.69039 20.811 2.60542 20.5294 1.69499 19.8066C0.763565 19.0671 0.0534852 17.8945 0.00259565 16.1588C-0.0489214 14.4016 0.672575 13.1825 1.6188 12.3898C2.54355 11.6152 3.66317 11.261 4.44546 11.149C4.47175 11.1453 4.49828 11.1434 4.52483 11.1434H11.7549C12.0653 11.1434 12.317 11.3959 12.317 11.7073C12.317 12.0188 12.0653 12.2713 11.7549 12.2713H4.56608C3.93447 12.3681 3.04946 12.6609 2.33945 13.2556C1.63651 13.8444 1.08587 14.7414 1.12646 16.1256C1.16767 17.5312 1.72393 18.3912 2.39272 18.9221C3.08252 19.4698 3.93165 19.6963 4.56103 19.7371C5.84552 19.8202 10.5054 19.4043 16.3943 15.0418C19.4444 12.7823 23.0117 11.2687 25.944 11.0867C27.4125 10.9956 28.7781 11.2357 29.8323 11.9485C30.9069 12.6751 31.5833 13.8424 31.7474 15.4376C31.906 16.9796 31.6581 18.1446 31.1133 19.0043C30.5672 19.866 29.7673 20.3507 28.958 20.6164C27.6515 21.0453 26.1628 20.9283 25.545 20.8798C25.4271 20.8706 25.3408 20.8638 25.2937 20.8638C24.4233 20.8638 21.3325 20.6771 19.9156 20.5854C19.6058 20.5654 19.3708 20.2972 19.3908 19.9863C19.4108 19.6755 19.6782 19.4398 19.988 19.4599C21.4263 19.553 24.4694 19.7359 25.2937 19.7359C25.4118 19.7359 25.57 19.747 25.7586 19.7603C26.4538 19.8094 27.563 19.8876 28.6084 19.5444C29.2416 19.3366 29.7938 18.984 30.1645 18.3992C30.5364 17.8123 30.7697 16.9217 30.629 15.5533C30.4937 14.2381 29.9613 13.3959 29.2039 12.8838C28.4262 12.358 27.3368 12.1304 26.0134 12.2125Z" fill="#FFB800"/>
<path fill-rule="evenodd" clip-rule="evenodd" d="M19.6739 26.1472C19.5099 23.4875 18.1175 20.1135 15.949 17.1677C11.4561 11.0642 10.9497 6.13007 11.051 4.55432C11.1025 3.75354 11.3832 2.66514 12.1037 1.75183C12.8408 0.817459 14.0098 0.105133 15.74 0.0540825C17.5064 0.00196504 18.7683 0.805325 19.5734 1.77574C20.3568 2.72014 20.7396 3.86051 20.7396 4.59063L20.7396 11.8435C20.7396 12.155 20.4879 12.4075 20.1774 12.4075C19.8669 12.4075 19.6152 12.155 19.6152 11.8435L19.6152 4.59063C19.6152 4.16588 19.3532 3.27363 18.7092 2.49724C18.0866 1.74685 17.1381 1.14122 15.7731 1.1815C14.3719 1.22284 13.5146 1.78086 12.9854 2.45177C12.4395 3.14375 12.2136 3.99557 12.173 4.62694C12.0901 5.91549 12.5047 10.5901 16.8535 16.4977C19.1058 19.5574 20.6147 23.1359 20.7961 26.0776C20.8869 27.5507 20.6475 28.9206 19.937 29.9782C19.2127 31.0562 18.0491 31.7347 16.459 31.8993C14.9264 32.0579 13.7678 31.8245 12.9113 31.298C12.0503 30.7688 11.564 29.986 11.2974 29.1838C11.0335 28.3896 10.9777 27.5573 10.9822 26.8781C10.9845 26.5359 11.0022 26.2252 11.0188 25.972C11.0225 25.9164 11.0259 25.8651 11.0291 25.8176C11.0414 25.6361 11.0498 25.5111 11.0498 25.4252C11.0498 24.5521 11.2359 21.4515 11.3273 20.0301C11.3473 19.7193 11.6147 19.4836 11.9245 19.5037C12.2343 19.5237 12.4693 19.7919 12.4493 20.1028C12.3565 21.5455 12.1742 24.5983 12.1742 25.4252C12.1742 25.5532 12.1621 25.7308 12.1494 25.9172C12.1465 25.9598 12.1436 26.0029 12.1408 26.046C12.1246 26.2919 12.1086 26.5767 12.1065 26.8856C12.1024 27.5085 12.1559 28.2007 12.3641 28.8271C12.5695 29.4454 12.9178 29.9792 13.4988 30.3363C14.0843 30.6962 14.9749 30.919 16.3436 30.7774C17.6546 30.6417 18.4942 30.1076 19.0046 29.3478C19.5288 28.5676 19.7557 27.4747 19.6739 26.1472Z" fill="#0C42A6"/>
</svg>
