<svg width="22" height="23" viewBox="0 0 22 23" fill="none" xmlns="http://www.w3.org/2000/svg">
<path d="M10.0741 2.43451C10.3941 1.59051 11.6051 1.59051 11.9261 2.43451L13.9961 8.16851C14.0683 8.3553 14.1955 8.5158 14.3608 8.62881C14.5261 8.74182 14.7218 8.80204 14.9221 8.80151H20.0091C20.9491 8.80151 21.3591 9.97151 20.6201 10.5445L17.0001 13.8015C16.8379 13.9262 16.7194 14.099 16.6616 14.2952C16.6037 14.4914 16.6095 14.7008 16.6781 14.8935L18.0001 20.4965C18.3221 21.3965 17.2801 22.1695 16.4921 21.6155L11.5751 18.4955C11.4067 18.3772 11.2059 18.3137 11.0001 18.3137C10.7943 18.3137 10.5935 18.3772 10.4251 18.4955L5.50808 21.6155C4.72108 22.1695 3.67808 21.3955 4.00008 20.4965L5.32208 14.8935C5.39066 14.7008 5.39643 14.4914 5.33859 14.2952C5.28074 14.099 5.16223 13.9262 5.00008 13.8015L1.38008 10.5445C0.640077 9.97151 1.05208 8.80151 1.99008 8.80151H7.07708C7.27737 8.80218 7.47314 8.74202 7.63849 8.62899C7.80385 8.51595 7.93098 8.35538 8.00308 8.16851L10.0731 2.43451H10.0741Z" stroke="white" stroke-width="1.8" stroke-linecap="round" stroke-linejoin="round"/>
</svg>
