<svg width="11" height="14" viewBox="0 0 11 14" fill="none" xmlns="http://www.w3.org/2000/svg">
<path d="M7.26758 0.844727H3.76758V2.01139H7.26758V0.844727ZM4.93424 8.42806H6.10091V4.92806H4.93424V8.42806ZM9.61841 4.57223L10.4467 3.74389C10.1959 3.44639 9.92175 3.16639 9.62424 2.92139L8.79591 3.74973C7.86685 3.00208 6.7101 2.59455 5.51758 2.59473C2.61841 2.59473 0.267578 4.94556 0.267578 7.84473C0.267578 10.7439 2.61258 13.0947 5.51758 13.0947C6.50592 13.0953 7.47432 12.8166 8.31124 12.2909C9.14815 11.7651 9.81954 11.0137 10.2481 10.1231C10.6766 9.23246 10.8449 8.23892 10.7335 7.25687C10.6221 6.27483 10.2356 5.34422 9.61841 4.57223ZM5.51758 11.9281C3.26008 11.9281 1.43424 10.1022 1.43424 7.84473C1.43424 5.58723 3.26008 3.76139 5.51758 3.76139C7.77508 3.76139 9.60091 5.58723 9.60091 7.84473C9.60091 10.1022 7.77508 11.9281 5.51758 11.9281Z" fill="#2C4340"/>
</svg>
