<svg width="23" height="23" viewBox="0 0 23 23" fill="none" xmlns="http://www.w3.org/2000/svg">
<path d="M6.68798 18.5778L3.05593 19.3528C2.48872 19.4738 1.988 18.9644 2.11882 18.3993L2.9159 14.9566C2.20597 13.6818 1.83563 12.2582 1.8379 10.8127C1.8379 5.95245 5.94182 2.0127 11.0046 2.0127C16.0673 2.0127 20.1712 5.95245 20.1712 10.8127C20.1712 15.6729 16.0673 19.6127 11.0046 19.6127C9.49881 19.6149 8.01588 19.2593 6.68798 18.5778ZM6.95382 16.7184L7.5524 17.0264C8.6144 17.5712 9.80043 17.8551 11.0046 17.8527C12.455 17.8527 13.8728 17.4398 15.0787 16.6662C16.2847 15.8927 17.2246 14.7932 17.7797 13.5068C18.3347 12.2204 18.4799 10.8049 18.197 9.43926C17.914 8.07363 17.2156 6.81922 16.19 5.83466C15.1644 4.8501 13.8578 4.17961 12.4352 3.90797C11.0127 3.63633 9.53821 3.77574 8.19822 4.30858C6.85823 4.84142 5.71292 5.74376 4.90712 6.90148C4.10133 8.0592 3.67123 9.42031 3.67123 10.8127C3.67123 11.9866 3.96915 13.1165 4.5329 14.1268L4.85282 14.7014L4.36477 16.8094C4.31244 17.0354 4.51273 17.2392 4.73961 17.1908L6.95382 16.7184Z" fill="#F1B313"/>
<line x1="7.36448" y1="9.41982" x2="14.7223" y2="9.41982" stroke="#F1B313" stroke-width="1.8" stroke-linecap="round"/>
<line x1="7.32566" y1="12.4325" x2="12.8786" y2="12.4325" stroke="#F1B313" stroke-width="1.8" stroke-linecap="round"/>
</svg>
