<svg width="21" height="18" viewBox="0 0 21 18" fill="none" xmlns="http://www.w3.org/2000/svg">
<path d="M10.921 2.40967H19.9539M10.921 6.07633H17.1145M10.921 11.5763H19.9539M10.921 15.243H17.1145" stroke="#F1B313" stroke-width="1.8" stroke-linecap="round" stroke-linejoin="round"/>
<path d="M6.33773 1.49316H2.67106C2.1648 1.49316 1.75439 1.90357 1.75439 2.40983V6.0765C1.75439 6.58276 2.1648 6.99316 2.67106 6.99316H6.33773C6.84399 6.99316 7.25439 6.58276 7.25439 6.0765V2.40983C7.25439 1.90357 6.84399 1.49316 6.33773 1.49316Z" stroke="#F1B313" stroke-width="1.8" stroke-linecap="round" stroke-linejoin="round"/>
<path d="M6.33773 10.6597H2.67106C2.1648 10.6597 1.75439 11.0701 1.75439 11.5763V15.243C1.75439 15.7493 2.1648 16.1597 2.67106 16.1597H6.33773C6.84399 16.1597 7.25439 15.7493 7.25439 15.243V11.5763C7.25439 11.0701 6.84399 10.6597 6.33773 10.6597Z" stroke="#F1B313" stroke-width="1.8" stroke-linecap="round" stroke-linejoin="round"/>
</svg>
