<svg width="16" height="20" viewBox="0 0 16 20" fill="none" xmlns="http://www.w3.org/2000/svg">
<path d="M8.00435 0.616211C7.03189 0.616211 6.09926 1.02008 5.41163 1.73897C4.724 2.45786 4.33769 3.43288 4.33769 4.44954C4.33769 5.46621 4.724 6.44123 5.41163 7.16012C6.09926 7.87901 7.03189 8.28288 8.00435 8.28288C8.97681 8.28288 9.90944 7.87901 10.5971 7.16012C11.2847 6.44123 11.671 5.46621 11.671 4.44954C11.671 3.43288 11.2847 2.45786 10.5971 1.73897C9.90944 1.02008 8.97681 0.616211 8.00435 0.616211ZM6.17102 4.44954C6.17102 3.94121 6.36417 3.4537 6.70799 3.09426C7.05181 2.73481 7.51812 2.53288 8.00435 2.53288C8.49058 2.53288 8.9569 2.73481 9.30072 3.09426C9.64453 3.4537 9.83769 3.94121 9.83769 4.44954C9.83769 4.95788 9.64453 5.44539 9.30072 5.80483C8.9569 6.16428 8.49058 6.36621 8.00435 6.36621C7.51812 6.36621 7.05181 6.16428 6.70799 5.80483C6.36417 5.44539 6.17102 4.95788 6.17102 4.44954ZM12.5877 10.1995H3.42102C2.69168 10.1995 1.9922 10.5024 1.47648 11.0416C0.960752 11.5808 0.671021 12.312 0.671021 13.0745C0.671021 15.2135 1.51252 16.927 2.89302 18.0866C4.25152 19.227 6.07385 19.7829 8.00435 19.7829C9.93485 19.7829 11.7572 19.227 13.1157 18.0866C14.4944 16.927 15.3377 15.2135 15.3377 13.0745C15.3377 12.312 15.048 11.5808 14.5322 11.0416C14.0165 10.5024 13.317 10.1995 12.5877 10.1995ZM3.42102 12.1162H12.5877C12.8308 12.1162 13.064 12.2172 13.2359 12.3969C13.4078 12.5766 13.5044 12.8204 13.5044 13.0745C13.5044 14.6405 12.9085 15.802 11.968 16.5916C11.0037 17.4005 9.61769 17.8662 8.00435 17.8662C6.39102 17.8662 5.00502 17.4005 4.04069 16.5916C3.10019 15.802 2.50435 14.6405 2.50435 13.0745C2.50435 12.8204 2.60093 12.5766 2.77284 12.3969C2.94475 12.2172 3.17791 12.1162 3.42102 12.1162Z" fill="#F1B313"/>
</svg>
