<svg width="22" height="22" viewBox="0 0 22 22" fill="none" xmlns="http://www.w3.org/2000/svg">
<path d="M12.8378 2.95036C12.8378 2.30778 12.3171 1.78711 11.6745 1.78711H10.3353C9.69177 1.78711 9.1711 2.30778 9.1711 2.95036C9.1711 3.48019 8.8081 3.93486 8.31402 4.12919C8.2361 4.16036 8.15819 4.19336 8.0821 4.22636C7.59535 4.43719 7.01694 4.37303 6.6411 3.99811C6.42297 3.78014 6.12722 3.65769 5.81885 3.65769C5.51048 3.65769 5.21473 3.78014 4.9966 3.99811L4.04877 4.94594C3.8308 5.16407 3.70835 5.45982 3.70835 5.76819C3.70835 6.07656 3.8308 6.37231 4.04877 6.59044C4.4246 6.96628 4.48877 7.54378 4.2761 8.03144C4.24269 8.10819 4.2106 8.18551 4.17985 8.26336C3.98552 8.75744 3.53085 9.12044 3.00102 9.12044C2.35844 9.12044 1.83777 9.64111 1.83777 10.2837V11.6239C1.83777 12.2664 2.35844 12.7871 3.00102 12.7871C3.53085 12.7871 3.98552 13.1501 4.17985 13.6442C4.21102 13.7221 4.24402 13.8 4.2761 13.8761C4.48785 14.3629 4.42369 14.9413 4.04877 15.3171C3.8308 15.5352 3.70835 15.831 3.70835 16.1394C3.70835 16.4477 3.8308 16.7435 4.04877 16.9616L4.9966 17.9094C5.21473 18.1274 5.51048 18.2499 5.81885 18.2499C6.12722 18.2499 6.42297 18.1274 6.6411 17.9094C7.01694 17.5336 7.59444 17.4694 8.0821 17.6812C8.15819 17.7151 8.2361 17.7472 8.31402 17.7784C8.8081 17.9727 9.1711 18.4274 9.1711 18.9572C9.1711 19.5998 9.69177 20.1204 10.3344 20.1204H11.6745C12.3171 20.1204 12.8378 19.5998 12.8378 18.9572C12.8378 18.4274 13.2008 17.9727 13.6949 17.7774C13.7728 17.7472 13.8507 17.7151 13.9268 17.6821C14.4135 17.4694 14.9919 17.5345 15.3669 17.9094C15.4749 18.0175 15.6031 18.1032 15.7443 18.1617C15.8855 18.2202 16.0368 18.2503 16.1896 18.2503C16.3424 18.2503 16.4937 18.2202 16.6348 18.1617C16.776 18.1032 16.9042 18.0175 17.0123 17.9094L17.9601 16.9616C18.1781 16.7435 18.3005 16.4477 18.3005 16.1394C18.3005 15.831 18.1781 15.5352 17.9601 15.3171C17.5843 14.9413 17.5201 14.3638 17.7319 13.8761C17.7658 13.8 17.7979 13.7221 17.829 13.6442C18.0234 13.1501 18.478 12.7871 19.0079 12.7871C19.6504 12.7871 20.1711 12.2664 20.1711 11.6239V10.2846C20.1711 9.64203 19.6504 9.12136 19.0079 9.12136C18.478 9.12136 18.0234 8.75836 17.8281 8.26428C17.7974 8.18641 17.7653 8.10909 17.7319 8.03236C17.521 7.54561 17.5852 6.96719 17.9601 6.59136C18.1781 6.37323 18.3005 6.07748 18.3005 5.76911C18.3005 5.46074 18.1781 5.16499 17.9601 4.94686L17.0123 3.99903C16.7941 3.78105 16.4984 3.65861 16.19 3.65861C15.8816 3.65861 15.5859 3.78105 15.3678 3.99903C14.9919 4.37486 14.4144 4.43903 13.9268 4.22728C13.85 4.19355 13.7727 4.16116 13.6949 4.13011C13.2008 3.93486 12.8378 3.48019 12.8378 2.95128V2.95036Z" stroke="#F1B313" stroke-width="1.8"/>
<path d="M14.6711 10.9538C14.6711 11.9262 14.2848 12.8589 13.5972 13.5465C12.9095 14.2341 11.9769 14.6204 11.0044 14.6204C10.032 14.6204 9.09934 14.2341 8.41171 13.5465C7.72408 12.8589 7.33777 11.9262 7.33777 10.9538C7.33777 9.98132 7.72408 9.04868 8.41171 8.36105C9.09934 7.67342 10.032 7.28711 11.0044 7.28711C11.9769 7.28711 12.9095 7.67342 13.5972 8.36105C14.2848 9.04868 14.6711 9.98132 14.6711 10.9538V10.9538Z" stroke="#F1B313" stroke-width="1.8"/>
</svg>
