<svg width="21" height="19" viewBox="0 0 21 19" fill="none" xmlns="http://www.w3.org/2000/svg">
<path d="M12.3373 4.75122V3.07738C12.3373 2.82381 12.2847 2.57299 12.1828 2.34079C12.0809 2.10859 11.9319 1.90005 11.7453 1.72835C11.5587 1.55666 11.3385 1.42554 11.0987 1.34328C10.8588 1.26102 10.6045 1.22942 10.3518 1.25047L3.01845 1.86097C2.56016 1.89914 2.13296 2.10814 1.82156 2.44654C1.51015 2.78494 1.3373 3.22801 1.33728 3.68788V14.9812C1.3373 15.4411 1.51015 15.8842 1.82156 16.2226C2.13296 16.561 2.56016 16.77 3.01845 16.8081L10.3518 17.4195C10.6046 17.4406 10.859 17.409 11.0989 17.3267C11.3388 17.2444 11.559 17.1131 11.7456 16.9414C11.9323 16.7696 12.0812 16.5609 12.183 16.3286C12.2849 16.0963 12.3374 15.8454 12.3373 15.5917V13.9179M11.4206 9.33455H19.6706H11.4206ZM19.6706 9.33455L16.6154 5.66788L19.6706 9.33455ZM19.6706 9.33455L16.6154 13.0012L19.6706 9.33455Z" stroke="#F1B313" stroke-width="1.8" stroke-linecap="round" stroke-linejoin="round"/>
</svg>
