<svg width="23" height="23" viewBox="0 0 23 23" fill="none" xmlns="http://www.w3.org/2000/svg">
<path d="M15.321 18.9728L18.9531 19.7478C19.5203 19.8688 20.021 19.3594 19.8902 18.7944L19.0931 15.3516C19.8031 14.0768 20.1734 12.6532 20.1711 11.2077C20.1711 6.34747 16.0672 2.40771 11.0045 2.40771C5.94172 2.40771 1.8378 6.34747 1.8378 11.2077C1.8378 16.068 5.94172 20.0077 11.0045 20.0077C12.5102 20.0099 13.9932 19.6544 15.321 18.9728ZM15.0552 17.1134L14.4566 17.4214C13.3946 17.9662 12.2086 18.2501 11.0045 18.2477C9.55407 18.2477 8.13625 17.8348 6.93029 17.0613C5.72433 16.2877 4.78439 15.1882 4.22935 13.9018C3.67431 12.6154 3.52908 11.1999 3.81204 9.83428C4.095 8.46865 4.79343 7.21424 5.81902 6.22968C6.8446 5.24512 8.15128 4.57463 9.5738 4.30299C10.9963 4.03135 12.4708 4.17076 13.8108 4.7036C15.1508 5.23644 16.2961 6.13878 17.1019 7.2965C17.9077 8.45422 18.3378 9.81533 18.3378 11.2077C18.3378 12.3816 18.0399 13.5116 17.4761 14.5218L17.1562 15.0964L17.6443 17.2045C17.6966 17.4305 17.4963 17.6342 17.2694 17.5858L15.0552 17.1134Z" fill="#F1B313"/>
<path d="M11.0044 12.7876V11.3426C11.4331 11.3426 11.8522 11.2154 12.2087 10.9772C12.5651 10.7391 12.843 10.4005 13.007 10.0044C13.1711 9.60837 13.214 9.17253 13.1304 8.75206C13.0467 8.33158 12.8403 7.94535 12.5371 7.6422C12.234 7.33906 11.8478 7.13261 11.4273 7.04898C11.0068 6.96534 10.571 7.00826 10.1749 7.17232C9.77882 7.33639 9.44028 7.61421 9.2021 7.97068C8.96392 8.32714 8.83679 8.74622 8.83679 9.17494" stroke="#F1B313" stroke-width="1.8" stroke-linecap="round" stroke-linejoin="round"/>
<path fill-rule="evenodd" clip-rule="evenodd" d="M11.0045 16.0393C11.244 16.0393 11.4738 15.9441 11.6431 15.7747C11.8125 15.6053 11.9077 15.3756 11.9077 15.1361C11.9077 14.8965 11.8125 14.6668 11.6431 14.4974C11.4738 14.3281 11.244 14.2329 11.0045 14.2329C10.765 14.2329 10.5352 14.3281 10.3659 14.4974C10.1965 14.6668 10.1013 14.8965 10.1013 15.1361C10.1013 15.3756 10.1965 15.6053 10.3659 15.7747C10.5352 15.9441 10.765 16.0393 11.0045 16.0393Z" fill="#F1B313"/>
</svg>
