<?xml version="1.0" encoding="iso-8859-1"?>
<!-- Generator: Adobe Illustrator 19.0.0, SVG Export Plug-In . SVG Version: 6.00 Build 0)  -->
<svg version="1.1" id="Layer_1" xmlns="http://www.w3.org/2000/svg" xmlns:xlink="http://www.w3.org/1999/xlink" x="0px" y="0px"
	 viewBox="0 0 512 512" style="enable-background:new 0 0 512 512;" xml:space="preserve">
<path style="fill:#DFDFDF" d="M256,0C114.616,0,0,114.616,0,256s114.616,256,256,256s256-114.616,256-256S397.384,0,256,0z"/>
<path d="M100,380.112V354.8c0-34.84,39.84-84.976,114.664-88.48l3.816-0.168V235.12l-2.024-1.152
	c-38.576-21.84-52.144-70.824-30.304-109.4s70.824-52.144,109.4-30.304s52.144,70.824,30.304,109.4
	c-7.168,12.664-17.64,23.136-30.304,30.304l-2.024,1.152v31.032l3.816,0.168c74.824,3.504,114.664,53.6,114.664,88.48v25.312
	L100,380.112z"/>
<path style="fill:#666666;" d="M256,87.888c42.104-0.032,76.272,34.072,76.304,76.176c0.024,27.504-14.768,52.888-38.704,66.424
	l-4.048,2.296v37.168l7.624,0.36C369.48,273.704,408,321.552,408,354.792v21.312H104v-21.312c0-33.24,38.52-81.096,110.848-84.48
	l7.624-0.36V232.8l-4.048-2.296c-36.656-20.712-49.584-67.224-28.872-103.88C203.088,102.664,228.488,87.864,256,87.888 M256,79.888
	c-46.528-0.016-84.256,37.68-84.272,84.208c-0.016,30.368,16.32,58.392,42.744,73.344v24.88C135.936,266,96,319.104,96,354.792
	v29.312h320v-29.312c0-35.696-39.936-88.8-118.472-92.472v-24.88c40.488-22.92,54.736-74.32,31.816-114.808
	C314.392,96.208,286.368,79.872,256,79.888z"/>
<g>
</g>
<g>
</g>
<g>
</g>
<g>
</g>
<g>
</g>
<g>
</g>
<g>
</g>
<g>
</g>
<g>
</g>
<g>
</g>
<g>
</g>
<g>
</g>
<g>
</g>
<g>
</g>
<g>
</g>
</svg>
