<svg width="146" height="37" viewBox="0 0 146 37" fill="none" xmlns="http://www.w3.org/2000/svg">
<path d="M49.786 28.9427L43.9604 12.0717H46.5524L50.6842 24.1626L51.0179 27.1789H51.5312L52.3781 28.7382C51.9845 28.8064 51.5568 28.8575 51.0949 28.8916C50.65 28.9427 50.2137 28.9598 49.786 28.9427ZM45.9621 13.6821L42.4205 13.2731L42.4462 12.0717H46.0391L45.9621 13.6821ZM52.3781 28.7382L50.9152 27.8435L56.4073 12.0717H58.4347L52.3781 28.7382ZM46.9117 13.7844L46.3727 12.0717H49.2984L49.4524 12.8897C49.076 13.0601 48.6654 13.222 48.2205 13.3754C47.7757 13.5117 47.3394 13.648 46.9117 13.7844ZM57.1002 13.6821L53.5586 13.2731L53.5843 12.0717H57.1772L57.1002 13.6821ZM57.3312 13.7844L56.7922 12.0717H59.7179L59.8719 12.8897C59.4955 13.0601 59.0848 13.222 58.64 13.3754C58.1952 13.5117 57.7589 13.648 57.3312 13.7844Z" fill="white"/>
<path d="M62.4916 29.1983C61.8072 29.1983 61.0886 29.0876 60.3358 28.866C59.583 28.6615 58.7874 28.3292 57.9491 27.8691L58.8986 25.6196C59.5488 26.0457 60.3187 26.4547 61.2084 26.8466C62.0981 27.2215 63.0219 27.4771 63.9801 27.6135C64.2025 27.426 64.3736 27.213 64.4933 26.9744C64.6131 26.7188 64.673 26.4376 64.673 26.1309C64.673 25.6367 64.519 25.2277 64.211 24.9039C63.9031 24.5801 63.5096 24.2989 63.0305 24.0603C62.5514 23.8218 62.0382 23.5917 61.4907 23.3702C60.9432 23.1486 60.4299 22.893 59.9509 22.6033C59.4718 22.3136 59.0783 21.9557 58.7703 21.5297C58.4624 21.0866 58.3084 20.5328 58.3084 19.8682C58.3084 19.0672 58.5394 18.3941 59.0013 17.8487C59.4632 17.3034 60.0621 16.8944 60.7978 16.6218C61.5506 16.3491 62.3461 16.2128 63.1845 16.2128C63.7833 16.2128 64.3565 16.2809 64.904 16.4173C65.4686 16.5536 65.9904 16.7411 66.4694 16.9796L65.6739 19.0246C65.0922 18.5304 64.3821 18.1811 63.5438 17.9766C62.7225 17.7721 61.9697 17.7039 61.2854 17.7721C60.9603 17.9766 60.7379 18.2151 60.6181 18.4878C60.5155 18.7434 60.4641 18.9905 60.4641 19.2291C60.4641 19.6892 60.6181 20.0727 60.9261 20.3794C61.234 20.6691 61.6276 20.9332 62.1066 21.1718C62.6028 21.3934 63.1246 21.6234 63.6721 21.862C64.2367 22.0835 64.7585 22.3477 65.2376 22.6544C65.7337 22.9441 66.1358 23.319 66.4438 23.7792C66.7517 24.2393 66.9057 24.8102 66.9057 25.4918C66.9057 26.5825 66.4951 27.4771 65.6739 28.1758C64.8526 28.8575 63.7919 29.1983 62.4916 29.1983ZM64.6473 20.2771L64.365 17.133L66.4694 16.9796C66.5037 17.525 66.4866 18.0788 66.4181 18.6412C66.3497 19.2035 66.2214 19.7489 66.0332 20.2771H64.6473Z" fill="white"/>
<path d="M74.8601 29.0705C73.8164 29.0705 72.9011 28.9001 72.1141 28.5593C71.327 28.2185 70.6683 27.7583 70.1379 27.1789C69.6076 26.5995 69.2141 25.9434 68.9574 25.2106C68.7008 24.4779 68.5725 23.711 68.5725 22.91C68.5725 22.058 68.7093 21.2315 68.9831 20.4305C69.2739 19.6296 69.676 18.9138 70.1893 18.2833C70.7026 17.6528 71.3185 17.15 72.0371 16.7751C72.7728 16.4002 73.5769 16.2128 74.4495 16.2128C75.1167 16.2128 75.7326 16.3235 76.2972 16.5451C76.8618 16.7666 77.3495 17.0819 77.7601 17.4909C78.1878 17.8828 78.5129 18.3515 78.7353 18.8968C78.9577 19.4421 79.0604 20.0386 79.0433 20.6861L76.8618 21.5808C76.9474 20.831 76.8362 20.1579 76.5282 19.5614C76.2202 18.965 75.7669 18.5048 75.168 18.1811C74.5863 17.8573 73.9191 17.7209 73.1663 17.7721C72.6359 18.0447 72.2082 18.4367 71.8831 18.9479C71.5751 19.4592 71.3441 20.013 71.1902 20.6095C71.0533 21.2059 70.9849 21.7938 70.9849 22.3732C70.9849 23.3787 71.1731 24.2393 71.5495 24.955C71.9259 25.6537 72.4306 26.1905 73.0636 26.5654C73.6966 26.9403 74.4067 27.1278 75.1937 27.1278C75.707 27.1278 76.2374 27.0511 76.7849 26.8977C77.3323 26.7444 77.8969 26.5399 78.4787 26.2843L78.8636 27.3834L74.8601 29.0705ZM77.5804 22.1176L70.7795 21.9898V20.6606L78.761 20.3027L79.0433 20.6861L77.5804 22.1176Z" fill="white"/>
<path d="M81.1778 22.3221L80.4078 21.044L80.6388 20.5328H87.1574L87.9273 21.8109L87.6963 22.3221H81.1778Z" fill="white"/>
<path d="M94.7677 29.1728C94.0833 29.1728 93.3733 29.079 92.6376 28.8916C91.919 28.7041 91.1662 28.4315 90.3792 28.0736L91.9704 25.7986C92.1072 26.0372 92.381 26.3098 92.7916 26.6166C93.2193 26.9233 93.7754 27.1704 94.4597 27.3579C95.1441 27.5283 95.9226 27.5453 96.7951 27.409C97.4966 26.9829 98.0355 26.3439 98.4119 25.4918C98.7883 24.6227 98.9765 23.728 98.9765 22.8078C98.9765 22.0409 98.8397 21.3252 98.5659 20.6606C98.3093 19.9789 97.9414 19.4336 97.4624 19.0246C97.0004 18.5986 96.4529 18.3856 95.8199 18.3856C95.204 18.3856 94.5624 18.5645 93.8951 18.9224C93.245 19.2802 92.5948 19.6892 91.9447 20.1493L91.7137 18.8968L95.6916 16.3917C96.5471 16.2043 97.317 16.2383 98.0013 16.494C98.7028 16.7496 99.3016 17.1671 99.7978 17.7465C100.311 18.3089 100.705 18.982 100.978 19.7659C101.252 20.5498 101.389 21.3934 101.389 22.2966C101.389 23.285 101.226 24.1967 100.901 25.0317C100.576 25.8667 100.114 26.5995 99.5155 27.23C98.9338 27.8435 98.2409 28.3207 97.4367 28.6615C96.6326 29.0024 95.7429 29.1728 94.7677 29.1728ZM90.3792 28.0736V10.8447L91.6624 9.89893L92.6633 10.8192V27.4857L90.3792 28.0736ZM88.4801 11.8928L88.1721 10.6914C88.6854 10.4528 89.2586 10.2653 89.8916 10.129C90.5417 9.99265 91.132 9.91597 91.6624 9.89893L91.996 10.538L90.8668 11.7138L88.4801 11.8928Z" fill="white"/>
<path d="M106.946 29.0705C106.621 28.9853 106.313 28.8575 106.022 28.6871C105.731 28.4996 105.466 28.2951 105.226 28.0736C105.004 27.835 104.824 27.6135 104.688 27.409C104.585 27.2386 104.499 27.0341 104.431 26.7955C104.362 26.5569 104.311 26.2502 104.277 25.8753C104.26 25.5003 104.251 25.0232 104.251 24.4438V17.2608L105.509 16.315L106.535 17.2097V24.5971C106.535 25.4833 106.672 26.1224 106.946 26.5143C107.22 26.9063 107.647 27.1022 108.229 27.1022C108.845 27.1022 109.512 26.9403 110.231 26.6166C110.967 26.2757 111.66 25.8923 112.31 25.4663L112.772 26.5654C112.139 27.0596 111.446 27.4942 110.693 27.8691C109.94 28.244 109.221 28.5337 108.537 28.7382C107.87 28.9598 107.339 29.0705 106.946 29.0705ZM102.326 18.3089L102.019 17.1074C102.532 16.8689 103.105 16.6814 103.738 16.5451C104.388 16.4087 104.978 16.3321 105.509 16.315L105.842 16.9541L104.713 18.1299L102.326 18.3089ZM113.747 29.0705C113.559 29.0535 113.328 28.9342 113.054 28.7127C112.78 28.5082 112.524 28.244 112.284 27.9202C112.062 27.5964 111.908 27.2727 111.822 26.9489V26.591V17.2608L113.08 16.315L114.106 17.2097V26.4887C114.106 26.6762 114.166 26.8125 114.286 26.8977C114.423 26.9659 114.585 27 114.773 27C114.962 27 115.158 26.9744 115.364 26.9233C115.586 26.8722 115.783 26.8211 115.954 26.7699L116.339 27.8947L113.747 29.0705ZM109.897 18.3089L109.589 17.1074C110.103 16.8689 110.676 16.6814 111.309 16.5451C111.959 16.4087 112.549 16.3321 113.08 16.315L113.413 16.9541L112.284 18.1299L109.897 18.3089Z" fill="white"/>
<path d="M122.995 29.0705C121.849 29.0876 120.831 28.8149 119.941 28.2525C119.051 27.6731 118.358 26.8977 117.862 25.9264C117.366 24.955 117.118 23.8899 117.118 22.7311C117.118 21.7427 117.289 20.848 117.631 20.0471C117.991 19.2291 118.47 18.5304 119.068 17.951C119.684 17.3716 120.377 16.9285 121.147 16.6218C121.934 16.315 122.747 16.1616 123.585 16.1616C124.578 16.1616 125.433 16.3491 126.152 16.724C126.887 17.0989 127.392 17.5335 127.666 18.0277L126.562 19.8937C126.288 19.4506 125.878 19.0587 125.33 18.7179C124.8 18.36 124.184 18.1044 123.483 17.951C122.798 17.7806 122.088 17.7806 121.353 17.951C120.771 18.4793 120.317 19.1439 119.992 19.9448C119.684 20.7458 119.53 21.5808 119.53 22.4499C119.53 23.302 119.667 24.0689 119.941 24.7505C120.232 25.4322 120.642 25.9775 121.173 26.3865C121.703 26.7785 122.319 26.9744 123.021 26.9744C123.568 26.9744 124.176 26.8296 124.843 26.5399C125.527 26.2502 126.263 25.7901 127.05 25.1595L126.973 26.4121L122.995 29.0705ZM127.64 29.0705C127.452 29.0535 127.221 28.9342 126.947 28.7127C126.673 28.5082 126.417 28.244 126.177 27.9202C125.955 27.5964 125.801 27.2727 125.715 26.9489V26.591V10.8447L126.973 9.89893L127.999 10.8192V26.4887C127.999 26.6762 128.059 26.8125 128.179 26.8977C128.316 26.9659 128.478 27 128.667 27C128.855 27 129.052 26.9744 129.257 26.9233C129.479 26.8722 129.676 26.8211 129.847 26.7699L130.232 27.8947L127.64 29.0705ZM123.791 11.8928L123.483 10.6914C123.996 10.4528 124.569 10.2653 125.202 10.129C125.852 9.99265 126.442 9.91597 126.973 9.89893L127.306 10.538L126.177 11.7138L123.791 11.8928Z" fill="white"/>
<path d="M136.914 29.0705C135.87 29.0705 134.955 28.9001 134.168 28.5593C133.381 28.2185 132.722 27.7583 132.192 27.1789C131.662 26.5995 131.268 25.9434 131.011 25.2106C130.755 24.4779 130.627 23.711 130.627 22.91C130.627 22.058 130.763 21.2315 131.037 20.4305C131.328 19.6296 131.73 18.9138 132.243 18.2833C132.757 17.6528 133.373 17.15 134.091 16.7751C134.827 16.4002 135.631 16.2128 136.504 16.2128C137.171 16.2128 137.787 16.3235 138.351 16.5451C138.916 16.7666 139.404 17.0819 139.814 17.4909C140.242 17.8828 140.567 18.3515 140.789 18.8968C141.012 19.4421 141.114 20.0386 141.097 20.6861L138.916 21.5808C139.001 20.831 138.89 20.1579 138.582 19.5614C138.274 18.965 137.821 18.5048 137.222 18.1811C136.64 17.8573 135.973 17.7209 135.22 17.7721C134.69 18.0447 134.262 18.4367 133.937 18.9479C133.629 19.4592 133.398 20.013 133.244 20.6095C133.107 21.2059 133.039 21.7938 133.039 22.3732C133.039 23.3787 133.227 24.2393 133.604 24.955C133.98 25.6537 134.485 26.1905 135.118 26.5654C135.751 26.9403 136.461 27.1278 137.248 27.1278C137.761 27.1278 138.291 27.0511 138.839 26.8977C139.386 26.7444 139.951 26.5399 140.533 26.2843L140.918 27.3834L136.914 29.0705ZM139.634 22.1176L132.834 21.9898V20.6606L140.815 20.3027L141.097 20.6861L139.634 22.1176Z" fill="white"/>
<path fill-rule="evenodd" clip-rule="evenodd" d="M29.4727 14.5787C26.4693 14.7638 22.6592 16.3352 19.3327 18.7824C12.4404 23.853 6.86858 24.4245 5.08918 24.3102C4.18491 24.252 2.95584 23.9352 1.9245 23.1221C0.869371 22.2902 0.0649832 20.971 0.00733491 19.0183C-0.0510242 17.0415 0.766295 15.67 1.83819 14.7783C2.88576 13.9068 4.15408 13.5083 5.04027 13.3824C5.07005 13.3781 5.1001 13.376 5.13018 13.376H13.3204C13.6722 13.376 13.9573 13.6601 13.9573 14.0105C13.9573 14.3609 13.6722 14.6449 13.3204 14.6449H5.17691C4.46141 14.7538 3.45886 15.0832 2.65455 15.7523C1.85825 16.4147 1.23448 17.4237 1.28046 18.981C1.32714 20.5623 1.95728 21.5298 2.7149 22.1271C3.49631 22.7432 4.45822 22.9981 5.17118 23.0439C6.62627 23.1374 11.9051 22.6695 18.5761 17.7617C22.0313 15.2198 26.0723 13.517 29.3941 13.3123C31.0576 13.2097 32.6046 13.4799 33.7988 14.2818C35.0161 15.0991 35.7824 16.4124 35.9682 18.2069C36.1479 19.9417 35.8671 21.2524 35.2499 22.2195C34.6313 23.1889 33.7252 23.7343 32.8084 24.0331C31.3283 24.5156 29.642 24.3841 28.9421 24.3295C28.8085 24.3191 28.7108 24.3115 28.6574 24.3115C27.6714 24.3115 24.1702 24.1015 22.5651 23.9983C22.2141 23.9757 21.9479 23.674 21.9706 23.3243C21.9932 22.9747 22.2961 22.7095 22.6471 22.7321C24.2763 22.8368 27.7237 23.0426 28.6574 23.0426C28.7912 23.0426 28.9704 23.0551 29.1841 23.0701C29.9715 23.1252 31.2281 23.2132 32.4123 22.8272C33.1296 22.5933 33.7552 22.1967 34.1751 21.5388C34.5964 20.8786 34.8607 19.8766 34.7013 18.3372C34.548 16.8576 33.9449 15.9101 33.087 15.334C32.2059 14.7424 30.9718 14.4863 29.4727 14.5787Z" fill="white"/>
<path fill-rule="evenodd" clip-rule="evenodd" d="M22.2912 30.2554C22.1054 27.2633 20.5281 23.4675 18.0716 20.1535C12.9819 13.2871 12.4083 7.73614 12.5231 5.96342C12.5814 5.06254 12.8994 3.83809 13.7156 2.81062C14.5506 1.75945 15.8748 0.958082 17.8349 0.90065C19.8359 0.842018 21.2654 1.7458 22.1773 2.83752C23.0649 3.89997 23.4984 5.18288 23.4984 6.00427L23.4984 14.1638C23.4984 14.5142 23.2133 14.7982 22.8616 14.7982C22.5099 14.7982 22.2248 14.5142 22.2248 14.1638L22.2248 6.00427C22.2248 5.52643 21.928 4.52265 21.1983 3.6492C20.4931 2.80501 19.4186 2.12368 17.8723 2.16899C16.285 2.2155 15.3139 2.84327 14.7143 3.59805C14.096 4.37652 13.8401 5.33482 13.7941 6.04511C13.7002 7.49473 14.1699 12.7537 19.0962 19.3997C21.6477 22.8419 23.3569 26.8677 23.5624 30.1771C23.6653 31.8343 23.3942 33.3755 22.5892 34.5653C21.7688 35.778 20.4506 36.5414 18.6493 36.7265C16.9132 36.905 15.6007 36.6424 14.6305 36.0501C13.6552 35.4547 13.1042 34.5741 12.8022 33.6715C12.5033 32.7781 12.4401 31.8418 12.4452 31.0777C12.4477 30.6927 12.4678 30.3431 12.4867 30.0583C12.4908 29.9958 12.4947 29.938 12.4983 29.8846C12.5122 29.6804 12.5218 29.5398 12.5218 29.4432C12.5218 28.4609 12.7325 24.9728 12.8361 23.3737C12.8587 23.024 13.1616 22.7589 13.5126 22.7814C13.8636 22.804 14.1298 23.1057 14.1071 23.4554C14.002 25.0785 13.7954 28.5129 13.7954 29.4432C13.7954 29.5872 13.7817 29.787 13.7674 29.9966C13.7641 30.0446 13.7608 30.0931 13.7576 30.1416C13.7393 30.4182 13.7211 30.7386 13.7188 31.0861C13.7141 31.7869 13.7748 32.5656 14.0105 33.2703C14.2433 33.9659 14.6378 34.5664 15.296 34.9682C15.9592 35.3731 16.9682 35.6237 18.5186 35.4643C20.0037 35.3117 20.9548 34.7108 21.5331 33.8561C22.1269 32.9784 22.3839 31.7489 22.2912 30.2554Z" fill="white"/>
</svg>
