<svg width="18" height="17" viewBox="0 0 18 17" fill="none" xmlns="http://www.w3.org/2000/svg">
<path d="M1.5 2.70964C1.5 2.26761 1.67559 1.84368 1.98816 1.53112C2.30072 1.21856 2.72464 1.04297 3.16667 1.04297H5.9C6.07483 1.0431 6.24519 1.09822 6.38696 1.20051C6.52874 1.30281 6.63475 1.4471 6.69 1.61297L7.93833 5.35714C8.00158 5.54742 7.9941 5.75413 7.91726 5.93934C7.84042 6.12455 7.69938 6.27585 7.52 6.36547L5.63917 7.30714C6.5611 9.34758 8.19538 10.9819 10.2358 11.9038L11.1775 10.023C11.2671 9.84359 11.4184 9.70254 11.6036 9.6257C11.7888 9.54886 11.9956 9.54138 12.1858 9.60464L15.93 10.853C16.096 10.9083 16.2404 11.0144 16.3427 11.1563C16.445 11.2983 16.5 11.4688 16.5 11.6438V14.3763C16.5 14.8183 16.3244 15.2423 16.0118 15.5548C15.6993 15.8674 15.2754 16.043 14.8333 16.043H14C7.09667 16.043 1.5 10.4463 1.5 3.54297V2.70964Z" stroke="#F1B313" stroke-width="1.8" stroke-linecap="round" stroke-linejoin="round"/>
</svg>
