<svg width="14" height="17" viewBox="0 0 14 17" fill="none" xmlns="http://www.w3.org/2000/svg">
<path d="M6.97148 10.2097C7.42981 10.2097 7.82231 10.0464 8.14898 9.71972C8.47509 9.39361 8.63814 9.00138 8.63814 8.54305C8.63814 8.08472 8.47509 7.69222 8.14898 7.36555C7.82231 7.03944 7.42981 6.87638 6.97148 6.87638C6.51314 6.87638 6.12092 7.03944 5.79481 7.36555C5.46814 7.69222 5.30481 8.08472 5.30481 8.54305C5.30481 9.00138 5.46814 9.39361 5.79481 9.71972C6.12092 10.0464 6.51314 10.2097 6.97148 10.2097ZM6.97148 15.1264C7.54092 14.9736 8.10703 14.6922 8.66981 14.2822C9.23203 13.8728 9.72148 13.4181 10.1381 12.9181L8.63814 11.418C8.38814 11.5708 8.12092 11.6855 7.83648 11.7622C7.55148 11.8383 7.26314 11.8764 6.97148 11.8764C6.05481 11.8764 5.27009 11.55 4.61731 10.8972C3.96453 10.2444 3.63814 9.45972 3.63814 8.54305C3.63814 7.62638 3.96453 6.84166 4.61731 6.18888C5.27009 5.53611 6.05481 5.20972 6.97148 5.20972C7.88814 5.20972 8.67286 5.53611 9.32564 6.18888C9.97842 6.84166 10.3048 7.62638 10.3048 8.54305C10.3048 8.84861 10.2668 9.14361 10.1906 9.42805C10.114 9.71305 9.99925 9.98749 9.84648 10.2514L11.0965 11.5014C11.3743 10.9319 11.5895 10.3347 11.7423 9.70972C11.8951 9.08472 11.9715 8.44583 11.9715 7.79305V3.85555L6.97148 1.98055L1.97148 3.85555V7.79305C1.97148 9.47361 2.4437 11.0014 3.38814 12.3764C4.33259 13.7514 5.52703 14.6681 6.97148 15.1264ZM6.97148 16.7514C6.8187 16.7514 6.67648 16.7408 6.54481 16.7197C6.41259 16.6992 6.29092 16.6681 6.17981 16.6264C4.45759 15.9875 3.04786 14.8486 1.95064 13.2097C0.853421 11.5708 0.30481 9.76527 0.30481 7.79305V3.85555C0.30481 3.50833 0.405643 3.19583 0.607309 2.91805C0.808421 2.64027 1.0687 2.43888 1.38814 2.31388L6.38814 0.438883C6.58259 0.369439 6.77703 0.334717 6.97148 0.334717C7.16592 0.334717 7.36036 0.369439 7.55481 0.438883L12.5548 2.31388C12.8743 2.43888 13.1348 2.64027 13.3365 2.91805C13.5376 3.19583 13.6381 3.50833 13.6381 3.85555V7.79305C13.6381 9.76527 13.0895 11.5708 11.9923 13.2097C10.8951 14.8486 9.48536 15.9875 7.76314 16.6264C7.65203 16.6681 7.53036 16.6992 7.39814 16.7197C7.26648 16.7408 7.12425 16.7514 6.97148 16.7514Z" fill="#F1B313"/>
</svg>
